{"title":"Frontline.College.Inc.2010.DVDRip.XViD-SPRiNTER","uid":6933158,"size":752617418,"categoryP":"video","categoryS":"movies","magnet":"?xt=urn:btih:027ac506e0bd90216c6ed4fcc4123bd5d9d170d1&amp;dn=Frontline.College.Inc.2010.DVDRip.XViD-SPRiNTER&amp;tr=udp%3A%2F%2Ftracker.openbittorrent.com%3A80&amp;tr=udp%3A%2F%2Fopen.demonii.com%3A1337&amp;tr=udp%3A%2F%2Ftracker.coppersurfer.tk%3A6969&amp;tr=udp%3A%2F%2Fexodus.desync.com%3A6969","seeders":1,"leechers":0,"uploader":"TvTeam","files":5,"time":1325730798,"description":". \n &lt;a href=&quot;\nhttp://www.torrenting.com&quot; rel=&quot;nofollow&quot; target=&quot;_NEW&quot;&gt;\nhttp://www.torrenting.com&lt;/a&gt;          :     Once &amp; For all ;)\n\n\n               www . Torrenting . Com \n\n(((((((((((((= Enjoy No RAR releases =))))))))))))))))))))\n\n\n...................................NFO:....................................\n\n.                                                     \n                                                   \n                                                         \n                                                          \n                                                           \n                                                          \n                                                          \n                                                          \n                                                           \n                                                         \n                                                          \n                                                        \n                                                      \n                                     \n                                                 \n                                                   \n                                             \n                                              \n                                                     \n                                                      \n                                                      \n                                                      \n                                                    \n                                                     \n                                                   \n                                                     \n                                                     \n                                                      \n                                                     \n                                                      \n                                                    \n                 ARTiCHOKE                        \n                                                \n                      \n                                                        \n                                                      \n                                                      \n                                               \n                                          \n                                                   \n                                            \n                                                    \n                                                       \n                                                        \n                                                      \n                                                \n                                                        \n                                                 \n                                              \n                                                  \n                                                \n                                                  \n                                        \n\n      \n                                \n      SPRiNTER proudly presents...     \n                                \n      \n \n Frontline.College.Inc.2010.DVDRip.XViD-SPRiNTER\n\n Date: 2012.01\n &lt;a href=&quot; http://www.pbs.org/wgbh/pages/frontline/collegeinc/&quot; rel=&quot;nofollow&quot; target=&quot;_NEW&quot;&gt; http://www.pbs.org/wgbh/pages/frontline/collegeinc/&lt;/a&gt;\n\n \n\n      \n                 \n      Release notes     \n                 \n      \n\n Enjoy!\n\n\n      \n          \n       News      \n          \n      \n\n - Looking for talented xvid-encoders with time &amp; addiction :)\n - Suppliers who can provide pre-retail or retail dvds with decent upload!\n - 50Mbit+ dump providers with 1TB+ free space.\n\n contact us :)\n\n\n      \n           \n     Greetings    \n           \n      \n\n\nNTX FiCO HNR CiNEFiLE AEN HUMANiSM TASTE 0MNiDVD\n\n\n      \n           \n      Details     \n           \n      \n\nFormat                                   : AVI\nFormat/Info                              : Audio Video Interleave\nFile size                                : 702 MiB\nDuration                                 : 56mn 21s\nOverall bit rate mode                    : Variable\nOverall bit rate                         : 1 743 Kbps\nWriting application                      : Nandub v1.0rc2\nWriting library                          : Nandub build 1853/release\n\nVideo\nID                                       : 0\nFormat                                   : MPEG-4 Visual\nFormat profile                           : Advanced Simple@L5\nFormat settings, BVOP                    : No\nFormat settings, QPel                    : No\nFormat settings, GMC                     : No warppoints\nFormat settings, Matrix                  : Default (H.263)\nCodec ID                                 : XVID\nCodec ID/Hint                            : XviD\nDuration                                 : 56mn 21s\nBit rate                                 : 1 598 Kbps\nWidth                                    : 576 pixels\nHeight                                   : 320 pixels\nDisplay aspect ratio                     : 16:9\nFrame rate                               : 29.970 fps\nColor space                              : YUV\nChroma subsampling                       : 4:2:0\nBit depth                                : 8 bits\nScan type                                : Progressive\nCompression mode                         : Lossy\nBits/(Pixel*Frame)                       : 0.289\nStream size                              : 644 MiB (92%)\nWriting library                          : XviD 61\n\nAudio\nID                                       : 1\nFormat                                   : MPEG Audio\nFormat version                           : Version 1\nFormat profile                           : Layer 3\nCodec ID                                 : 55\nCodec ID/Hint                            : MP3\nDuration                                 : 56mn 21s\nBit rate mode                            : Variable\nBit rate                                 : 131 Kbps\nChannel(s)                               : 2 channels\nSampling rate                            : 48.0 KHz\nCompression mode                         : Lossy\nStream size                              : 52.8 MiB (8%)\nAlignment                                : Aligned on interleaves\nInterleave, duration                     : 24 ms (0.72 video frame)\nInterleave, preload duration             : 293 ms\nWriting library                          : LAME3.89 (alpha)","torrent":{"xt":"urn:btih:027ac506e0bd90216c6ed4fcc4123bd5d9d170d1","amp;dn":"Frontline.College.Inc.2010.DVDRip.XViD-SPRiNTER","amp;tr":["udp%3A%2F%2Ftracker.openbittorrent.com%3A80","udp%3A%2F%2Fopen.demonii.com%3A1337","udp%3A%2F%2Ftracker.coppersurfer.tk%3A6969","udp%3A%2F%2Fexodus.desync.com%3A6969"],"infoHash":"027ac506e0bd90216c6ed4fcc4123bd5d9d170d1","infoHashBuffer":{"type":"Buffer","data":[2,122,197,6,224,189,144,33,108,110,212,252,196,18,59,213,217,209,112,209]},"announce":[],"urlList":[]}}